<mxfile host="Electron" agent="Mozilla/5.0 (Windows NT 10.0; Win64; x64) AppleWebKit/537.36 (KHTML, like Gecko) draw.io/24.7.17 Chrome/128.0.6613.36 Electron/32.0.1 Safari/537.36" version="24.7.17">
  <diagram name="Page-1" id="GLDq5bMen8jlPRQu5EKH">
    <mxGraphModel dx="2074" dy="836" grid="1" gridSize="10" guides="1" tooltips="1" connect="1" arrows="1" fold="1" page="1" pageScale="1" pageWidth="850" pageHeight="1100" math="0" shadow="0">
      <root>
        <mxCell id="0" />
        <mxCell id="1" parent="0" />
        <mxCell id="KMpIxaAEJdpiu075ooxI-1" value="{name}-vpc&lt;div&gt;172.16.0.0/28&lt;/div&gt;" style="points=[[0,0],[0.25,0],[0.5,0],[0.75,0],[1,0],[1,0.25],[1,0.5],[1,0.75],[1,1],[0.75,1],[0.5,1],[0.25,1],[0,1],[0,0.75],[0,0.5],[0,0.25]];outlineConnect=0;gradientColor=none;html=1;whiteSpace=wrap;fontSize=12;fontStyle=0;container=0;pointerEvents=0;collapsible=0;recursiveResize=0;shape=mxgraph.aws4.group;grIcon=mxgraph.aws4.group_vpc2;strokeColor=#8C4FFF;fillColor=none;verticalAlign=top;align=left;spacingLeft=30;fontColor=#AAB7B8;dashed=0;movable=1;resizable=1;rotatable=1;deletable=1;editable=1;locked=0;connectable=1;" parent="1" vertex="1">
          <mxGeometry x="100" y="111" width="560" height="429" as="geometry" />
        </mxCell>
        <mxCell id="KMpIxaAEJdpiu075ooxI-2" value="AWS Cloud" style="points=[[0,0],[0.25,0],[0.5,0],[0.75,0],[1,0],[1,0.25],[1,0.5],[1,0.75],[1,1],[0.75,1],[0.5,1],[0.25,1],[0,1],[0,0.75],[0,0.5],[0,0.25]];outlineConnect=0;gradientColor=none;html=1;whiteSpace=wrap;fontSize=12;fontStyle=0;container=1;pointerEvents=0;collapsible=0;recursiveResize=0;shape=mxgraph.aws4.group;grIcon=mxgraph.aws4.group_aws_cloud_alt;strokeColor=#232F3E;fillColor=none;verticalAlign=top;align=left;spacingLeft=30;fontColor=#232F3E;dashed=0;" parent="1" vertex="1">
          <mxGeometry x="30" y="31" width="670" height="559" as="geometry" />
        </mxCell>
        <mxCell id="KMpIxaAEJdpiu075ooxI-3" value="us-east-1" style="points=[[0,0],[0.25,0],[0.5,0],[0.75,0],[1,0],[1,0.25],[1,0.5],[1,0.75],[1,1],[0.75,1],[0.5,1],[0.25,1],[0,1],[0,0.75],[0,0.5],[0,0.25]];outlineConnect=0;gradientColor=none;html=1;whiteSpace=wrap;fontSize=12;fontStyle=0;container=0;pointerEvents=0;collapsible=0;recursiveResize=0;shape=mxgraph.aws4.group;grIcon=mxgraph.aws4.group_region;strokeColor=#00A4A6;fillColor=none;verticalAlign=top;align=left;spacingLeft=30;fontColor=#147EBA;dashed=1;movable=1;resizable=1;rotatable=1;deletable=1;editable=1;locked=0;connectable=1;" parent="KMpIxaAEJdpiu075ooxI-2" vertex="1">
          <mxGeometry x="35" y="34" width="615" height="496" as="geometry" />
        </mxCell>
        <mxCell id="KMpIxaAEJdpiu075ooxI-5" value="us-east-1a" style="rounded=1;arcSize=10;dashed=1;strokeColor=#F59D56;fillColor=none;gradientColor=none;dashPattern=8 4;strokeWidth=2;verticalAlign=top;" parent="KMpIxaAEJdpiu075ooxI-2" vertex="1">
          <mxGeometry x="75" y="204" width="402" height="280" as="geometry" />
        </mxCell>
        <mxCell id="KMpIxaAEJdpiu075ooxI-8" value="{name}-public-subnet&lt;div&gt;172.16.0.0/28&lt;/div&gt;" style="points=[[0,0],[0.25,0],[0.5,0],[0.75,0],[1,0],[1,0.25],[1,0.5],[1,0.75],[1,1],[0.75,1],[0.5,1],[0.25,1],[0,1],[0,0.75],[0,0.5],[0,0.25]];outlineConnect=0;gradientColor=none;html=1;whiteSpace=wrap;fontSize=12;fontStyle=0;container=1;pointerEvents=0;collapsible=0;recursiveResize=0;shape=mxgraph.aws4.group;grIcon=mxgraph.aws4.group_security_group;grStroke=0;strokeColor=#7AA116;fillColor=#F2F6E8;verticalAlign=top;align=left;spacingLeft=30;fontColor=#248814;dashed=0;movable=1;resizable=1;rotatable=1;deletable=1;editable=1;locked=0;connectable=1;" parent="KMpIxaAEJdpiu075ooxI-2" vertex="1">
          <mxGeometry x="95" y="250" width="362" height="200" as="geometry" />
        </mxCell>
        <mxCell id="KMpIxaAEJdpiu075ooxI-11" value="{name}-ig" style="sketch=0;outlineConnect=0;fontColor=#232F3E;gradientColor=none;fillColor=#8C4FFF;strokeColor=none;dashed=0;verticalLabelPosition=bottom;verticalAlign=top;align=center;html=1;fontSize=12;fontStyle=0;aspect=fixed;pointerEvents=1;shape=mxgraph.aws4.internet_gateway;movable=1;resizable=1;rotatable=1;deletable=1;editable=1;locked=0;connectable=1;" parent="KMpIxaAEJdpiu075ooxI-2" vertex="1">
          <mxGeometry x="510" y="99" width="80" height="78" as="geometry" />
        </mxCell>
        <mxCell id="KMpIxaAEJdpiu075ooxI-12" value="{name}-public-route-table" style="sketch=0;outlineConnect=0;fontColor=#232F3E;gradientColor=none;fillColor=#8C4FFF;strokeColor=none;dashed=0;verticalLabelPosition=bottom;verticalAlign=top;align=center;html=1;fontSize=12;fontStyle=0;aspect=fixed;pointerEvents=1;shape=mxgraph.aws4.route_table;" parent="KMpIxaAEJdpiu075ooxI-2" vertex="1">
          <mxGeometry x="510" y="369" width="80" height="76" as="geometry" />
        </mxCell>
        <mxCell id="KMpIxaAEJdpiu075ooxI-13" value="{name}-public-nacl" style="sketch=0;outlineConnect=0;fontColor=#232F3E;gradientColor=none;fillColor=#8C4FFF;strokeColor=none;dashed=0;verticalLabelPosition=bottom;verticalAlign=top;align=center;html=1;fontSize=12;fontStyle=0;aspect=fixed;pointerEvents=1;shape=mxgraph.aws4.network_access_control_list;" parent="KMpIxaAEJdpiu075ooxI-2" vertex="1">
          <mxGeometry x="510" y="229" width="80" height="78" as="geometry" />
        </mxCell>
        <mxCell id="KMpIxaAEJdpiu075ooxI-29" value="" style="group" parent="KMpIxaAEJdpiu075ooxI-2" vertex="1" connectable="0">
          <mxGeometry x="185.005" y="309" width="164.5" height="130" as="geometry" />
        </mxCell>
        <mxCell id="KMpIxaAEJdpiu075ooxI-30" value="{name}-server-sg" style="fillColor=none;strokeColor=#DD3522;verticalAlign=top;fontStyle=0;fontColor=#DD3522;whiteSpace=wrap;html=1;movable=1;resizable=1;rotatable=1;deletable=1;editable=1;locked=0;connectable=1;container=0;" parent="KMpIxaAEJdpiu075ooxI-29" vertex="1">
          <mxGeometry width="164.50000000000003" height="130" as="geometry" />
        </mxCell>
        <mxCell id="KMpIxaAEJdpiu075ooxI-31" value="{name}-server" style="sketch=0;points=[[0,0,0],[0.25,0,0],[0.5,0,0],[0.75,0,0],[1,0,0],[0,1,0],[0.25,1,0],[0.5,1,0],[0.75,1,0],[1,1,0],[0,0.25,0],[0,0.5,0],[0,0.75,0],[1,0.25,0],[1,0.5,0],[1,0.75,0]];outlineConnect=0;fontColor=#232F3E;fillColor=#ED7100;strokeColor=#ffffff;dashed=0;verticalLabelPosition=bottom;verticalAlign=top;align=center;html=1;fontSize=12;fontStyle=0;aspect=fixed;shape=mxgraph.aws4.resourceIcon;resIcon=mxgraph.aws4.ec2;movable=1;resizable=1;rotatable=1;deletable=1;editable=1;locked=0;connectable=1;container=0;" parent="KMpIxaAEJdpiu075ooxI-29" vertex="1">
          <mxGeometry x="40.00919354838709" y="26" width="80" height="78" as="geometry" />
        </mxCell>
        <mxCell id="BtXqdeQ5Vk6Zabs0sTYW-1" value="" style="image;sketch=0;aspect=fixed;html=1;points=[];align=center;fontSize=12;image=img/lib/mscae/Docker.svg;" parent="KMpIxaAEJdpiu075ooxI-29" vertex="1">
          <mxGeometry x="55.004999999999995" y="44.5" width="50" height="41" as="geometry" />
        </mxCell>
        <mxCell id="KMpIxaAEJdpiu075ooxI-38" value="{name}-eip" style="outlineConnect=0;dashed=0;verticalLabelPosition=bottom;verticalAlign=top;align=center;html=1;shape=mxgraph.aws3.elastic_ip;fillColor=#F58534;gradientColor=none;" parent="KMpIxaAEJdpiu075ooxI-2" vertex="1">
          <mxGeometry x="225.01" y="139" width="78.5" height="21" as="geometry" />
        </mxCell>
        <mxCell id="zRLwdJeCu3TSM6kLGqJt-1" value="Session Manager" style="sketch=0;outlineConnect=0;fontColor=#232F3E;gradientColor=none;fillColor=#E7157B;strokeColor=none;dashed=0;verticalLabelPosition=bottom;verticalAlign=top;align=center;html=1;fontSize=12;fontStyle=0;aspect=fixed;pointerEvents=1;shape=mxgraph.aws4.systems_manager_session_manager;spacingLeft=30;fontFamily=Helvetica;resizable=1;" parent="KMpIxaAEJdpiu075ooxI-2" vertex="1">
          <mxGeometry x="360" y="99" width="78" height="78" as="geometry" />
        </mxCell>
        <mxCell id="JFcF7WGnG_LHGvFiXsYQ-1" style="edgeStyle=orthogonalEdgeStyle;rounded=0;orthogonalLoop=1;jettySize=auto;html=1;entryX=0.5;entryY=0;entryDx=0;entryDy=0;entryPerimeter=0;fontFamily=Helvetica;fontSize=12;fontColor=#147EBA;fontStyle=0;resizable=1;" edge="1" parent="KMpIxaAEJdpiu075ooxI-2" source="KMpIxaAEJdpiu075ooxI-38" target="KMpIxaAEJdpiu075ooxI-31">
          <mxGeometry relative="1" as="geometry" />
        </mxCell>
        <mxCell id="JFcF7WGnG_LHGvFiXsYQ-2" style="edgeStyle=orthogonalEdgeStyle;rounded=0;orthogonalLoop=1;jettySize=auto;html=1;entryX=1;entryY=0.5;entryDx=0;entryDy=0;entryPerimeter=0;fontFamily=Helvetica;fontSize=12;fontColor=#147EBA;fontStyle=0;resizable=1;" edge="1" parent="KMpIxaAEJdpiu075ooxI-2" source="zRLwdJeCu3TSM6kLGqJt-1" target="KMpIxaAEJdpiu075ooxI-31">
          <mxGeometry relative="1" as="geometry" />
        </mxCell>
      </root>
    </mxGraphModel>
  </diagram>
</mxfile>
